<?xml version="1.0" encoding="UTF-8"?>
<svg id="Layer_1" data-name="Layer 1" xmlns="http://www.w3.org/2000/svg" viewBox="0 0 433.28 46.67">
  <path d="M20.71.5c2.87,0,5.56.54,8.06,1.63,2.5,1.09,4.7,2.57,6.57,4.45s3.36,4.07,4.45,6.57c1.09,2.5,1.63,5.19,1.63,8.06s-.54,5.56-1.63,8.06c-1.09,2.5-2.57,4.7-4.45,6.57s-4.07,3.36-6.57,4.45c-2.5,1.09-5.19,1.63-8.06,1.63s-5.56-.54-8.06-1.63c-2.5-1.09-4.7-2.57-6.57-4.45s-3.36-4.07-4.45-6.57c-1.09-2.5-1.63-5.19-1.63-8.06s.54-5.56,1.63-8.06c1.09-2.5,2.57-4.7,4.45-6.57s4.07-3.36,6.57-4.45c2.5-1.09,5.19-1.63,8.06-1.63ZM21.05,36.79c1.69,0,3.28-.4,4.75-1.22,1.47-.81,2.76-1.92,3.87-3.34,1.1-1.42,1.97-3.07,2.6-4.97.63-1.9.94-3.91.94-6.05s-.31-4.21-.94-6.1c-.63-1.9-1.49-3.54-2.6-4.94-1.1-1.4-2.39-2.51-3.87-3.34-1.47-.83-3.06-1.24-4.75-1.24s-3.28.41-4.75,1.24c-1.47.83-2.76,1.94-3.87,3.34-1.1,1.4-1.97,3.05-2.6,4.94-.63,1.9-.94,3.93-.94,6.1s.31,4.15.94,6.05c.63,1.9,1.49,3.55,2.6,4.97,1.1,1.42,2.39,2.53,3.87,3.34,1.47.81,3.06,1.22,4.75,1.22Z"/>
  <path d="M69.54,41.51c-1.51-.77-3.13-1.32-4.53-2.46-2.32-1.84-4.3-3.89-5.94-6.16-1.64-2.26-2.9-4.74-3.78-7.43-.11-.4-.24-.73-.39-.97-.15-.24-.31-.45-.5-.64h-.44c-.11-.04-.26-.06-.44-.06h-1.6v5.52c0,1.66.11,3.22.33,4.7.22,1.29.59,2.56,1.1,3.81.52,1.25,1.25,2.23,2.21,2.93l-.22,1.16h-13.7l-.22-1.16c.99-.66,1.69-1.37,2.1-2.13.4-.75.66-1.55.77-2.38.11-.83.12-1.68.03-2.54-.09-.86-.14-1.76-.14-2.68-.04-3.57-.08-7.13-.14-10.66-.06-3.54-.12-7.09-.19-10.66,0-.48.02-.96.06-1.44.04-.48,0-.93-.11-1.35-.11-.42-.32-.81-.64-1.16-.31-.35-.82-.64-1.52-.86-.22-.07-.41-.22-.55-.44-.15-.22-.31-.48-.5-.77-.18-.33-.22-.69-.11-1.08s.33-.69.66-.91c.29-.18.6-.34.91-.47.31-.13.62-.21.91-.25.74-.07,1.48-.12,2.24-.14.75-.02,1.5-.06,2.24-.14,1.77-.04,3.35-.07,4.75-.11.63,0,1.23,0,1.82-.03.59-.02,1.13-.04,1.63-.06s.91-.03,1.24-.03h.66c1.77,0,3.43.3,5,.88,1.56.59,2.93,1.4,4.09,2.43,1.16,1.03,2.08,2.24,2.76,3.62.68,1.38,1.02,2.86,1.02,4.45,0,1.14-.19,2.26-.55,3.34-.37,1.09-.88,2.1-1.52,3.04-.64.94-1.42,1.79-2.32,2.54-.9.76-1.91,1.37-3.01,1.85-.11.44-.02.99.28,1.66.63,1.47,1.3,2.9,2.02,4.28.72,1.38,1.55,2.69,2.49,3.92.94,1.23,2.02,2.35,3.26,3.34,0,0,7.71,9.84,28.51,8.79,0,0,1.47.2,1.26,1.04s-17.15,3.03-31.29-4.17ZM58.22,17.96c1.29-.22,2.38-.84,3.26-1.85.88-1.01,1.33-2.2,1.33-3.56,0-.77-.15-1.49-.44-2.15-.29-.66-.7-1.24-1.22-1.74-.52-.5-1.12-.89-1.82-1.19-.7-.29-1.44-.44-2.21-.44l-4.47-.11c-.18,0-.36.07-.52.22-.17.15-.25.31-.25.5v9.78c0,.18.08.35.25.5.17.15.34.22.52.22l5.58-.17Z"/>
  <path d="M106.55,36.18c.15.29.22.52.22.66h.06v.39s-.02.06-.06.06v.11l-.17.33c-1.88,1.29-3.94,2.31-6.19,3.07-2.25.76-4.62,1.13-7.13,1.13-.29,0-.69,0-1.19-.03-.5-.02-.89-.03-1.19-.03-2.54-.22-4.92-.91-7.13-2.07-2.21-1.16-4.14-2.67-5.8-4.53-1.66-1.86-2.96-4-3.89-6.41-.94-2.41-1.41-4.96-1.41-7.65,0-2.14.29-4.18.88-6.13.59-1.95,1.42-3.76,2.49-5.41,1.07-1.66,2.35-3.13,3.84-4.42,1.49-1.29,3.12-2.34,4.89-3.15,2.65-1.07,5.49-1.6,8.51-1.6,1.22,0,2.41.09,3.59.28,1.18.18,2.32.44,3.42.77.11.07.32.19.64.33.31.15.51.26.58.33.55.37,1.08.88,1.57,1.55.5.66.91,1.37,1.24,2.13.33.76.56,1.5.69,2.24.13.74.08,1.36-.14,1.88-.3.74-.75,1.21-1.35,1.41-.61.2-1.17-.03-1.68-.69-.37-.48-.72-.96-1.05-1.44-.33-.48-.69-.9-1.08-1.27-.39-.37-.82-.68-1.3-.94-.48-.26-1.03-.4-1.66-.44-.18-.04-.33-.05-.44-.03s-.2.03-.28.03c-2.17,0-4.17.5-5.99,1.49-1.82.99-3.32,2.34-4.5,4.03-1.03,1.36-1.83,2.86-2.4,4.5-.57,1.64-.86,3.38-.86,5.22,0,2.17.4,4.23,1.22,6.16.81,1.93,1.92,3.62,3.34,5.05,1.42,1.44,3.07,2.57,4.94,3.4,1.88.83,3.88,1.24,6.02,1.24,1.44,0,2.82-.19,4.14-.58,1.33-.39,2.58-.93,3.76-1.63.4.15.68.37.83.66Z"/>
  <path d="M143.95,36.18c.15.29.32.59.52.88.2.29.38.59.52.88.18.44.35.88.5,1.33.15.44.31.88.5,1.33l-.17.33c-.29.15-.6.3-.91.47-.31.17-.64.25-.97.25-.81,0-1.55,0-2.21.03-.66.02-1.31.03-1.93.03h-4.25c-.15,0-.3-.04-.44-.11-.37-.07-.65-.11-.83-.11-.11-.07-.28-.15-.5-.22-.07-.07-.16-.12-.25-.14-.09-.02-.19-.06-.3-.14-.07-.15-.17-.28-.28-.39-.04-.52.07-1,.33-1.46.26-.46.59-.91.99-1.35.26-.29.52-.6.77-.91.26-.31.46-.64.61-.97.04-.07.06-.13.06-.17s.02-.09.06-.17c.07-.63.13-1.31.17-2.04.04-.74.09-1.42.17-2.04.07-1.1.1-2.11.08-3.01-.02-.9-.03-1.85-.03-2.84-.04-.77-.33-1.43-.88-1.96-.55-.53-1.23-.8-2.04-.8h-11.38c-.81,0-1.49.28-2.04.83-.55.55-.83,1.22-.83,1.99-.04,1.66-.06,3.23-.06,4.72s.04,3.12.11,4.89c0,.26.06.5.17.72.18.26.4.61.64,1.05.24.44.45.81.64,1.1.11.3.22.57.33.83.11.26.22.52.33.77.15.37.15.73,0,1.08-.15.35-.41.6-.77.75-.37.19-.72.28-1.05.28-.99,0-1.84,0-2.54.03-.7.02-1.38.03-2.04.03h-4.64c-.44,0-.82-.17-1.13-.5-.31-.33-.43-.7-.36-1.1.07-.4.24-.79.5-1.16.26-.37.57-.75.94-1.16.26-.26.52-.61.8-1.05.28-.44.51-.81.69-1.1.11-.22.17-.44.17-.66.04-.81,0-1.61-.08-2.4-.09-.79-.12-1.56-.08-2.29.04-3.94,0-7.87-.14-11.79-.13-3.92-.27-7.85-.41-11.79-.04-.44-.24-.86-.61-1.27-.37-.4-.66-.83-.88-1.27-.11-.26-.22-.51-.33-.75-.11-.24-.22-.51-.33-.8-.15-.37-.15-.73,0-1.08.15-.35.4-.62.77-.8.18-.07.37-.13.55-.17.18-.04.37-.06.55-.06,1.07-.04,2-.06,2.79-.06h7.37c.44,0,.81.17,1.1.5.29.33.4.7.33,1.1-.07.41-.24.79-.5,1.16-.26.37-.59.74-.99,1.1-.37.37-.74.77-1.1,1.22-.37.44-.57.87-.61,1.27-.07,1.58-.11,3.22-.11,4.92v5.19c0,.41.14.74.41.99.28.26.62.39,1.02.39l14.25.55c.4,0,.75-.13,1.02-.39.28-.26.41-.59.41-.99,0-1.8,0-3.75.03-5.83.02-2.08,0-3.95-.08-5.61-.04-.37-.28-.72-.72-1.05s-.79-.7-1.05-1.1c-.15-.22-.28-.44-.39-.66-.11-.22-.24-.46-.39-.72-.18-.4-.19-.79-.03-1.16.17-.37.45-.64.86-.83.18-.07.35-.13.5-.17.15-.04.31-.06.5-.06h2.38c.7,0,1.39,0,2.07.03.68.02,1.37.04,2.07.06.7.02,1.49.06,2.38.14.4.04.83.21,1.27.52.44.31.75.65.94,1.02.07.11.07.26,0,.44-.07.18-.18.38-.33.58-.15.2-.3.4-.47.58-.17.18-.32.31-.47.39-.81.41-1.31.98-1.49,1.71-.18.74-.26,1.47-.22,2.21.04,2.69.04,5.38,0,8.06-.04,2.69-.02,5.38.06,8.06.07,1.84.06,3.76-.06,5.74-.11,1.99.02,3.9.39,5.74,0,.11.04.24.11.39Z"/>
  <path d="M226.75,38.39c.29.11.6.36.91.75s.43.64.36.75c-.18.41-.44.78-.77,1.13-.33.35-.7.56-1.1.64-1.88.4-3.63.36-5.25-.14-1.62-.5-3.13-1.32-4.53-2.46-2.32-1.84-4.3-3.89-5.94-6.16-1.64-2.26-2.9-4.74-3.78-7.43-.11-.4-.24-.73-.39-.97-.15-.24-.31-.45-.5-.64h-.44c-.11-.04-.26-.06-.44-.06h-1.6v5.52c0,1.66.11,3.22.33,4.7.22,1.29.59,2.56,1.1,3.81.52,1.25,1.25,2.23,2.21,2.93l-.22,1.16h-13.7l-.22-1.16c.99-.66,1.69-1.37,2.1-2.13.4-.75.66-1.55.77-2.38.11-.83.12-1.68.03-2.54-.09-.86-.14-1.76-.14-2.68-.04-3.57-.08-7.13-.14-10.66-.05-3.54-.12-7.09-.19-10.66,0-.48.02-.96.06-1.44.04-.48,0-.93-.11-1.35-.11-.42-.32-.81-.64-1.16-.31-.35-.82-.64-1.52-.86-.22-.07-.41-.22-.55-.44-.15-.22-.31-.48-.5-.77-.18-.33-.22-.69-.11-1.08s.33-.69.66-.91c.29-.18.6-.34.91-.47.31-.13.62-.21.91-.25.74-.07,1.48-.12,2.24-.14.75-.02,1.5-.06,2.24-.14,1.77-.04,3.35-.07,4.75-.11.63,0,1.23,0,1.82-.03.59-.02,1.13-.04,1.63-.06s.91-.03,1.24-.03h.66c1.77,0,3.43.3,5,.88,1.56.59,2.93,1.4,4.09,2.43,1.16,1.03,2.08,2.24,2.76,3.62.68,1.38,1.02,2.86,1.02,4.45,0,1.14-.18,2.26-.55,3.34-.37,1.09-.88,2.1-1.52,3.04s-1.42,1.79-2.32,2.54c-.9.76-1.91,1.37-3.01,1.85-.11.44-.02.99.28,1.66.62,1.47,1.3,2.9,2.02,4.28.72,1.38,1.55,2.69,2.49,3.92.94,1.23,2.02,2.35,3.26,3.34,1.23.99,2.68,1.84,4.34,2.54ZM209.57,17.96c1.29-.22,2.38-.84,3.26-1.85.88-1.01,1.33-2.2,1.33-3.56,0-.77-.15-1.49-.44-2.15-.29-.66-.7-1.24-1.21-1.74-.52-.5-1.12-.89-1.82-1.19-.7-.29-1.44-.44-2.21-.44l-4.47-.11c-.18,0-.36.07-.52.22-.17.15-.25.31-.25.5v9.78c0,.18.08.35.25.5.17.15.34.22.52.22l5.58-.17Z"/>
  <path d="M241.33.5c.74,0,1.55,0,2.46.03.9.02,1.75.06,2.54.11.79.06,1.49.11,2.1.17s.99.08,1.13.08c.92.07,1.98.34,3.18.8,1.2.46,2.41,1.09,3.65,1.88,1.23.79,2.46,1.76,3.67,2.9,1.21,1.14,2.29,2.46,3.23,3.95.94,1.49,1.7,3.15,2.29,4.97.59,1.82.88,3.8.88,5.94,0,2.84-.46,5.43-1.38,7.79-.92,2.36-2.16,4.42-3.73,6.19-1.57,1.77-3.37,3.19-5.41,4.28-2.04,1.09-4.17,1.8-6.38,2.13-1.07.19-2.05.26-2.96.22-.9-.04-1.72-.09-2.46-.17-.15.04-.29.06-.44.06h-.5c-.07,0-.14,0-.19.03-.06.02-.12.03-.19.03v-.06h-12.26c-.33,0-.53-.15-.61-.44-.07-.18-.14-.36-.19-.52-.06-.17-.07-.27-.03-.3h.06s.08-.07.14-.11c.06-.04.1-.07.14-.11,1.14-.59,1.89-1.4,2.24-2.43.35-1.03.56-2.1.63-3.2V7.29c-.04-.52-.22-1.09-.55-1.71-.33-.63-.59-1.12-.77-1.49-.11-.18-.28-.37-.5-.55-.41-.37-.56-.84-.47-1.41.09-.57.4-.97.91-1.19.18-.07.34-.13.47-.17.13-.04.25-.06.36-.06.11-.04.29-.06.55-.06h.44c.26-.04.52-.06.8-.06h1.13c.66,0,1.34,0,2.04-.03.7-.02,1.34-.03,1.93-.03.7,0,1.38-.02,2.04-.06ZM259.39,24.42c.48-2.5.43-4.85-.14-7.04-.57-2.19-1.56-4.09-2.96-5.69s-3.16-2.83-5.27-3.7c-2.12-.86-4.5-1.22-7.15-1.08-.88.07-1.5.27-1.85.58-.35.31-.49.97-.41,1.96.04.7.05,1.68.05,2.96s0,2.71-.03,4.31c-.02,1.6-.05,3.27-.08,5-.04,1.73-.07,3.4-.11,5-.04,1.6-.06,3.07-.06,4.39v3.09c0,.37.14.78.42,1.24.28.46.56.71.86.75,1.22.15,2.5.17,3.87.06,1.36-.11,2.7-.38,4-.8,1.31-.42,2.51-1.02,3.62-1.8,1.11-.77,1.99-1.73,2.65-2.87.41-.66.74-1.22,1-1.68.26-.46.48-.91.66-1.35s.35-.91.5-1.41.29-1.13.44-1.91Z"/>
  <path d="M190.02,40.93c-.22-.33-.43-.65-.64-.97-.2-.31-.4-.62-.58-.91-.33-.44-.71-.86-1.13-1.27-.42-.41-.8-.83-1.13-1.27-.07-.07-.11-.13-.11-.17-.19-.44-.37-.94-.55-1.49-.18-.55-.37-1.12-.55-1.71-.18-.59-.37-1.15-.55-1.69-.18-.53-.37-1.02-.55-1.46-.07-.15-.15-.33-.22-.55-.07-.22-.15-.42-.22-.61-.81-2.32-1.62-4.57-2.43-6.74-.81-2.17-1.6-4.29-2.38-6.35-.77-2.06-1.54-4.12-2.29-6.16-.76-2.04-1.48-4.12-2.18-6.21-.33-1.07-.68-1.82-1.05-2.27-.37-.44-1.05-.64-2.04-.61-1.92.07-3.81.07-5.69,0-1.88-.07-3.77-.04-5.69.11-.22,0-.55.09-.99.28-.52.22-.8.6-.86,1.13-.06.53.12.99.52,1.35.22.18.4.39.55.61.22.48.37,1.06.44,1.74.07.68.07,1.23,0,1.63-.44,1.88-.96,3.94-1.55,6.19-.59,2.25-1.22,4.61-1.88,7.1-.66,2.49-1.35,5.04-2.07,7.65-.72,2.62-1.45,5.25-2.18,7.9-.11.37-.25.64-.41.8-.17.17-.36.3-.58.41-.22.11-.46.23-.72.36-.26.13-.52.36-.77.69-.22.3-.43.67-.64,1.13-.2.46-.43.91-.69,1.35-.04.15-.04.31,0,.5.07.29.28.44.61.44h12.98c.33,0,.53-.15.61-.44.07-.18.07-.35,0-.5-.26-.44-.49-.89-.69-1.35-.2-.46-.41-.84-.63-1.13-.37-.44-.67-.75-.91-.91-.24-.17-.45-.28-.64-.36-.15-.18-.22-.37-.22-.55.15-.81.29-1.72.44-2.73.15-1.01.31-2.02.5-3.04.18-1.01.4-2,.66-2.96.26-.96.55-1.8.88-2.54.11-.26.37-.45.77-.58.4-.13.86-.22,1.38-.28.52-.06,1.06-.1,1.63-.14.57-.04,1.08-.09,1.52-.17.66-.07,1.32-.12,1.96-.14.64-.02,1.3-.06,1.96-.14.85-.07,1.56.06,2.13.39.57.33,1,.92,1.3,1.77.4,1.07.79,2.32,1.16,3.76.37,1.44.79,2.82,1.27,4.14.22.66.42,1.28.61,1.85.18.57.28,1.12.3,1.66.02.53-.09,1.06-.33,1.57-.24.52-.69,1.05-1.35,1.6-.04.04-.03.14.03.3.06.17.12.34.19.52.07.3.28.44.61.44h12.54c.26,0,.45-.11.58-.33.13-.22.12-.44-.03-.66ZM170.31,14.05c-.69.26-1.24.8-1.5,1.5l-.97,5.14-.97-5.14c-.26-.69-.8-1.24-1.5-1.5l-2.61-.97,2.61-.97c.69-.26,1.24-.8,1.5-1.5l.97-4.81.97,4.81c.26.69.8,1.24,1.5,1.5l2.61.97-2.61.97Z"/>
  <g>
    <g>
      <path d="M295.67,42.37h-.5v-.06h-.5c-.28,0-.5-.22-.5-.5s.22-.5.5-.5h1.88c.27-.03.55.19.57.46.02.28-.15.51-.43.53h-.64c-.14.04-.26.06-.39.06Z"/>
      <path d="M299.91,42.44c-.16,0-.32,0-.48,0-.26-.01-.52-.02-.77-.04-.28-.02-.49-.25-.47-.53.01-.28.23-.5.53-.47.24.01.5.03.75.04.37.01.76.01,1.16-.01.27-.01.51.19.53.47s-.19.51-.47.53c-.27.02-.53.02-.78.02ZM292.7,42.32h-1.97c-.28,0-.5-.22-.5-.5s.22-.5.5-.5h1.97c.28,0,.5.22.5.5s-.22.5-.5.5ZM288.75,42.32h-1.97c-.28,0-.5-.22-.5-.5s.22-.5.5-.5h1.97c.28,0,.5.22.5.5s-.22.5-.5.5ZM284.8,42.32h-1.39c-.51,0-.78-.23-.92-.43-.16-.23-.11-.54.12-.7.23-.16.54-.11.7.12,0,0,.02.01.1.01h1.39c.28,0,.5.22.5.5s-.22.5-.5.5ZM302.62,42.17c-.24,0-.45-.17-.49-.42-.04-.27.14-.53.41-.57.63-.1,1.26-.24,1.88-.4.27-.07.54.09.61.35.07.27-.09.54-.35.61-.65.17-1.31.32-1.98.42-.03,0-.05,0-.08,0ZM306.43,41.15c-.2,0-.39-.12-.47-.32-.1-.26.03-.55.29-.64.59-.22,1.18-.48,1.76-.77.25-.12.55-.02.67.23.12.25.02.55-.23.67-.61.3-1.23.57-1.85.81-.06.02-.12.03-.18.03ZM283.3,40.61c-.17,0-.33-.08-.43-.24-.14-.24-.07-.54.17-.69.54-.33.97-.73,1.27-1.19.15-.23.46-.3.69-.15.23.15.3.46.15.69-.38.58-.91,1.08-1.58,1.49-.08.05-.17.07-.26.07ZM309.96,39.4c-.17,0-.33-.08-.42-.23-.15-.23-.08-.54.16-.69.54-.34,1.07-.71,1.57-1.1.22-.17.53-.13.7.09.17.22.13.53-.09.7-.53.41-1.09.8-1.66,1.16-.08.05-.17.08-.26.08ZM285.43,37.43s-.08,0-.12-.02c-.27-.07-.43-.34-.36-.61.15-.61.26-1.23.32-1.87.02-.27.28-.48.54-.45.27.02.48.27.45.54-.06.69-.18,1.37-.34,2.02-.06.23-.26.38-.48.38ZM313.07,36.98c-.13,0-.26-.05-.36-.15-.19-.2-.18-.52.01-.71.38-.37.75-.75,1.11-1.15l.21-.25c.18-.21.5-.24.71-.06s.24.49.06.71l-.23.26c-.37.42-.76.83-1.16,1.21-.1.09-.22.14-.35.14ZM315.63,33.98c-.1,0-.2-.03-.28-.09-.23-.16-.28-.47-.13-.7.36-.52.7-1.07,1.02-1.63.13-.24.44-.33.68-.19.24.13.33.44.19.68-.33.59-.69,1.17-1.07,1.72-.1.14-.25.22-.41.22ZM285.78,33.52c-.28,0-.5-.22-.5-.5v-1.97c0-.28.22-.5.5-.5s.5.22.5.5v1.97c0,.28-.22.5-.5.5ZM317.55,30.54c-.07,0-.14-.01-.2-.04-.25-.11-.37-.41-.26-.66.13-.3.26-.6.38-.91.11-.29.22-.59.32-.89.09-.26.37-.4.63-.32.26.09.4.37.32.63-.11.32-.22.63-.34.94-.12.32-.26.63-.39.94-.08.19-.27.3-.46.3ZM285.78,29.57c-.28,0-.5-.22-.5-.5v-1.97c0-.28.22-.5.5-.5s.5.22.5.5v1.97c0,.28-.22.5-.5.5ZM318.79,26.8s-.07,0-.11-.01c-.27-.06-.44-.33-.38-.6.14-.61.25-1.25.33-1.9.04-.27.29-.46.56-.43.27.04.47.29.43.56-.09.68-.2,1.35-.35,1.99-.05.23-.26.39-.49.39ZM285.78,25.62c-.28,0-.5-.22-.5-.5v-1.97c0-.28.22-.5.5-.5s.5.22.5.5v1.97c0,.28-.22.5-.5.5ZM319.29,22.89s-.01,0-.02,0c-.28-.01-.49-.24-.48-.52.01-.34.02-.69.02-1.04,0-.3,0-.6-.02-.89-.01-.28.2-.51.48-.52.29-.02.51.2.52.48.01.31.02.62.02.93,0,.36,0,.73-.02,1.08-.01.27-.23.48-.5.48ZM285.78,21.67c-.28,0-.5-.22-.5-.5v-1.97c0-.28.22-.5.5-.5s.5.22.5.5v1.97c0,.28-.22.5-.5.5ZM319.12,18.95c-.25,0-.46-.18-.5-.43-.09-.64-.21-1.27-.36-1.88-.07-.27.1-.54.36-.61.27-.07.54.1.61.36.16.64.29,1.31.38,1.99.04.27-.15.53-.43.56-.02,0-.05,0-.07,0ZM285.78,17.72c-.28,0-.5-.22-.5-.5v-1.97c0-.28.22-.5.5-.5s.5.22.5.5v1.97c0,.28-.22.5-.5.5ZM318.17,15.13c-.21,0-.4-.13-.47-.33-.22-.61-.46-1.21-.73-1.79-.12-.25,0-.55.25-.66.25-.12.55,0,.66.25.28.6.53,1.23.76,1.87.09.26-.04.55-.3.64-.06.02-.11.03-.17.03ZM285.78,13.78c-.28,0-.5-.22-.5-.5v-1.97c0-.28.22-.5.5-.5s.5.22.5.5v1.97c0,.28-.22.5-.5.5ZM316.52,11.55c-.17,0-.34-.09-.43-.25-.12-.21-.24-.41-.37-.62-.22-.34-.44-.68-.67-1-.16-.23-.11-.54.12-.7.23-.16.54-.11.7.12.24.34.48.69.7,1.05.13.21.26.43.39.65.14.24.06.54-.18.68-.08.05-.16.07-.25.07ZM285.78,9.83c-.28,0-.5-.22-.5-.5v-1.97c0-.28.22-.5.5-.5s.5.22.5.5v1.97c0,.28-.22.5-.5.5ZM314.23,8.34c-.14,0-.28-.06-.38-.17-.41-.47-.84-.92-1.29-1.34l.29-.41.34-.36-.34.36.38-.33c.48.45.93.92,1.36,1.42.18.21.16.52-.05.71-.09.08-.21.12-.33.12ZM285.19,5.99c-.18,0-.35-.1-.44-.27-.31-.59-.55-1.06-.73-1.41-.03-.04-.08-.12-.16-.19-.19-.2-.18-.52.02-.71s.52-.18.71.02c.12.13.22.26.3.4.19.38.43.85.74,1.43.13.24.04.55-.21.68-.07.04-.15.06-.23.06ZM311.37,5.62c-.11,0-.22-.04-.32-.11-.51-.42-1.03-.81-1.55-1.16-.23-.16-.29-.47-.13-.69.16-.23.47-.29.69-.13.54.37,1.08.78,1.61,1.21.21.17.25.49.07.7-.1.12-.24.18-.39.18ZM308.12,3.39c-.08,0-.17-.02-.25-.06-.57-.32-1.15-.62-1.72-.87-.25-.11-.37-.41-.26-.66.11-.25.41-.37.66-.26.6.26,1.21.57,1.81.91.24.14.32.44.19.68-.09.16-.26.25-.44.25ZM283.5,2.56s-.06,0-.1,0c-.27-.05-.45-.31-.4-.59.14-.7.55-1.21,1.19-1.49.2-.08.36-.14.5-.18.27-.08.54.07.62.34.08.26-.07.54-.34.62-.11.03-.25.08-.4.14-.33.14-.52.38-.59.75-.05.24-.26.4-.49.4ZM304.51,1.81s-.1,0-.15-.02c-.66-.2-1.28-.33-1.83-.39-.27-.03-.47-.27-.45-.55.03-.27.27-.48.55-.45.62.06,1.3.21,2.02.43.26.08.41.36.33.62-.07.22-.26.35-.48.35ZM300.62,1.25s-.03,0-.04,0c-.44-.04-.91-.07-1.43-.11l-.53-.03c-.28-.02-.49-.25-.47-.53.02-.28.26-.48.53-.47l.54.03c.52.04,1,.07,1.44.11.28.02.48.26.46.54-.02.26-.24.46-.5.46ZM286.81,1.11c-.27,0-.49-.21-.5-.48-.01-.28.2-.51.48-.52h1.99s0,0,0,0c.27,0,.5.22.5.5,0,.28-.22.5-.5.5h-1.96s-.01,0-.02,0ZM290.75,1.07c-.27,0-.49-.22-.5-.49,0-.28.21-.5.49-.51.49,0,.96-.02,1.39-.02h.58c.26,0,.5.21.51.49,0,.28-.22.5-.49.51h-.6c-.43,0-.89,0-1.37.02h0ZM296.67,1.03c-.74-.01-1.38-.02-1.98-.03-.28,0-.5-.23-.5-.5,0-.27.23-.5.5-.5h0c.6,0,1.25.01,1.95.03.27,0,.51.23.51.51,0,.27-.21.5-.48.5Z"/>
    </g>
    <path d="M297.96,36.81c-.27,0-.5-.22-.5-.49,0-.28.22-.5.49-.51.45,0,.91-.03,1.38-.07.2-.02.4-.04.6-.06.28-.03.52.17.55.44.03.27-.16.52-.44.55-.21.02-.43.05-.64.06-.49.04-.97.06-1.44.07h0ZM295.93,36.73s-.03,0-.05,0c-.15-.01-.29-.03-.43-.05-.46-.06-.86-.38-1.22-.98-.09-.15-.17-.3-.23-.44-.11-.25,0-.55.25-.66.25-.12.55,0,.66.25.05.11.11.22.18.34.21.36.39.49.49.51.14.02.27.03.41.04.27.03.48.27.45.55-.02.26-.24.45-.5.45ZM302,36.32c-.23,0-.43-.15-.49-.38-.06-.27.1-.54.37-.6.45-.11.9-.23,1.34-.38.19-.06.37-.12.55-.19.26-.1.55.04.64.29.1.26-.04.55-.29.64-.2.07-.39.14-.59.21-.47.15-.94.28-1.42.4-.04,0-.08.01-.12.01ZM305.8,34.89c-.18,0-.35-.09-.44-.26-.13-.24-.05-.55.2-.68.39-.22.78-.46,1.15-.72.16-.11.32-.23.48-.36.22-.17.53-.14.7.08.17.22.14.53-.08.7-.17.14-.35.27-.53.4-.4.28-.82.54-1.24.77-.08.04-.16.06-.24.06ZM294.24,33.54c-.28,0-.5-.22-.5-.5v-1.94c0-.28.22-.55.5-.55s.5.18.5.45v2.04c0,.28-.22.5-.5.5ZM308.93,32.33c-.11,0-.22-.04-.31-.11-.22-.17-.25-.49-.08-.7.25-.31.47-.65.68-1l.4-.66c.14-.24.45-.31.69-.17.24.14.31.45.17.69l-.4.65c-.22.38-.48.76-.75,1.1-.1.12-.25.19-.39.19ZM294.25,29.47h0c-.28,0-.5-.23-.49-.51,0-.65.02-1.33.04-2.04,0-.27.21-.49.51-.49.28,0,.49.23.49.51-.02.7-.03,1.38-.04,2.03,0,.27-.23.49-.5.49ZM311.03,28.84c-.07,0-.15-.02-.22-.05-.25-.12-.35-.42-.23-.67.09-.2.18-.39.26-.58.16-.39.31-.81.44-1.24.08-.26.36-.41.62-.33.26.08.41.36.33.62-.14.46-.3.91-.48,1.34-.09.21-.18.42-.29.63-.09.18-.26.28-.45.28ZM294.33,25.4h-.01c-.28,0-.5-.23-.49-.51l.04-2.04c0-.28.24-.49.51-.49.28,0,.5.23.49.51l-.04,2.04c0,.27-.23.49-.5.49ZM312.23,24.94s-.05,0-.08,0c-.27-.05-.45-.29-.41-.56,0,0,0-.05.01-.06.12-.65.21-1.31.27-1.96.02-.27.27-.47.54-.46.28.02.48.26.46.54-.05.68-.15,1.38-.28,2.07-.05.24-.26.43-.5.43ZM294.42,21.32h0c-.28,0-.5-.23-.49-.51l.04-2.04c0-.28.24-.5.51-.49.28,0,.5.23.49.51l-.04,2.04c0,.27-.23.49-.5.49ZM312.55,20.86c-.27,0-.49-.21-.5-.48-.03-.66-.11-1.32-.23-1.95-.05-.27.13-.53.4-.58.27-.04.53.13.58.4.13.68.21,1.38.24,2.09.01.28-.2.51-.48.52,0,0-.02,0-.02,0ZM311.81,16.87c-.21,0-.4-.13-.47-.34-.21-.63-.46-1.24-.75-1.82-.12-.25-.02-.55.22-.67.25-.12.55-.02.67.22.31.62.58,1.27.8,1.95.09.26-.05.54-.32.63-.05.02-.11.03-.16.03ZM294.48,16.75l-.5-.02.02-2.02c0-.27.23-.5.5-.5h0c.28,0,.5.23.5.5l-.02,2-.5.03ZM309.98,13.24c-.16,0-.31-.07-.41-.21-.25-.35-.52-.69-.8-1.02-.15-.17-.29-.33-.45-.49-.19-.2-.19-.51.01-.71.2-.19.51-.19.71.01.17.17.33.35.48.52.31.35.6.72.87,1.1.16.23.11.54-.12.7-.09.06-.19.09-.29.09ZM294.51,13.17c-.28,0-.5-.22-.5-.5v-.27c0-.66,0-1.25-.02-1.76,0-.28.21-.5.49-.51.27,0,.5.21.51.49.01.51.02,1.11.02,1.78v.27c0,.28-.22.5-.5.5ZM307.16,10.33c-.1,0-.21-.03-.3-.1-.51-.39-1.07-.74-1.65-1.06-.24-.13-.33-.44-.2-.68.13-.24.44-.33.68-.2.62.34,1.22.73,1.77,1.14.22.17.26.48.1.7-.1.13-.25.2-.4.2ZM294.45,9.1s-.03,0-.04,0c-.28-.02-.48-.26-.46-.54.05-.67.25-1.14.59-1.45.22-.2.53-.36.9-.48.26-.08.54.06.63.33.08.26-.06.54-.33.63-.24.08-.42.17-.54.27-.13.12-.23.4-.26.78-.02.26-.24.46-.5.46ZM303.6,8.38c-.06,0-.12-.01-.18-.03-.6-.23-1.24-.42-1.88-.57-.27-.06-.44-.33-.38-.6.06-.27.33-.44.6-.38.69.16,1.37.36,2.02.61.26.1.39.39.29.65-.08.2-.27.32-.47.32ZM299.64,7.46s-.03,0-.05,0c-.56-.05-1.14-.08-1.73-.08h-.24c-.27,0-.5-.22-.51-.49,0-.28.22-.5.49-.51h.26c.62,0,1.24.03,1.83.09.27.03.48.27.45.55-.03.26-.24.45-.5.45Z"/>
  </g>
  <g>
    <path d="M342.71,42.43c-.28,0-.5-.22-.5-.5s.22-.5.5-.5c.64,0,1.29-.03,1.92-.09.27-.02.52.18.54.45.02.27-.18.52-.45.54-.66.06-1.34.09-2.01.09h0ZM340.75,42.34s-.03,0-.04,0c-.67-.06-1.35-.15-2-.27-.27-.05-.45-.31-.4-.58.05-.27.31-.45.58-.4.62.12,1.26.2,1.9.26.28.02.48.27.45.54-.02.26-.24.46-.5.46ZM346.63,42.06c-.24,0-.44-.17-.49-.41-.05-.27.13-.53.4-.58.63-.12,1.26-.27,1.87-.45.27-.08.54.07.62.34s-.07.54-.34.62c-.64.19-1.3.35-1.96.48-.03,0-.06,0-.09,0ZM336.88,41.62s-.09,0-.14-.02c-.65-.19-1.29-.41-1.91-.67-.26-.1-.38-.4-.27-.65.1-.26.4-.38.65-.27.59.24,1.2.45,1.81.63.27.08.42.36.34.62-.06.22-.26.36-.48.36ZM350.41,40.94c-.2,0-.38-.12-.46-.31-.1-.26.02-.55.27-.65l.34-.14c.48-.21.95-.43,1.41-.67.25-.13.55-.03.67.21.13.25.03.55-.21.67-.48.25-.97.48-1.48.7l-.35.15c-.06.03-.13.04-.19.04ZM333.23,40.14c-.08,0-.16-.02-.23-.06-.6-.31-1.19-.65-1.75-1.01-.23-.15-.3-.46-.15-.69.15-.23.46-.3.69-.15.53.34,1.09.67,1.67.96.25.13.34.43.21.67-.09.17-.26.27-.44.27ZM353.9,39.12c-.16,0-.32-.08-.42-.23-.15-.23-.08-.54.15-.69.54-.35,1.06-.72,1.56-1.12.22-.17.53-.13.7.08s.13.53-.08.7c-.52.41-1.08.81-1.64,1.17-.08.05-.18.08-.27.08ZM329.92,38.01c-.11,0-.22-.03-.31-.11-.53-.41-1.04-.86-1.53-1.32-.2-.19-.21-.51-.02-.71.19-.2.51-.21.71-.02.46.44.95.86,1.46,1.26.22.17.26.48.08.7-.1.13-.25.19-.39.19ZM356.99,36.68c-.13,0-.26-.05-.36-.16-.19-.2-.18-.52.02-.71.11-.11.22-.21.33-.32.35-.35.68-.7,1-1.07.18-.21.5-.23.71-.05s.23.5.05.71c-.33.39-.68.76-1.05,1.12-.11.11-.23.23-.35.34-.1.09-.22.14-.34.14ZM327.06,35.3c-.14,0-.28-.06-.38-.17-.44-.51-.86-1.04-1.25-1.58-.16-.22-.11-.54.12-.7.22-.16.54-.11.7.12.37.52.77,1.03,1.19,1.51.18.21.16.52-.05.71-.09.08-.21.12-.33.12ZM359.56,33.71c-.1,0-.2-.03-.29-.09-.22-.16-.28-.47-.12-.7.37-.52.72-1.06,1.04-1.62.14-.24.44-.32.68-.18.24.14.32.44.18.68-.34.58-.71,1.16-1.09,1.7-.1.14-.25.21-.41.21ZM324.77,32.1c-.17,0-.34-.09-.43-.25-.33-.57-.65-1.17-.93-1.79-.12-.25,0-.55.24-.66.25-.12.55,0,.66.24.27.58.57,1.16.89,1.71.14.24.06.54-.18.68-.08.05-.17.07-.25.07ZM361.53,30.3c-.07,0-.14-.02-.21-.05-.25-.12-.36-.41-.24-.66.08-.17.15-.34.23-.51.18-.42.35-.84.5-1.27.09-.26.38-.4.64-.31.26.09.4.38.31.64-.16.45-.33.9-.52,1.34-.08.18-.16.36-.24.53-.08.18-.27.29-.45.29ZM323.11,28.53c-.21,0-.4-.13-.47-.33-.22-.63-.42-1.28-.58-1.94-.07-.27.1-.54.37-.6.27-.07.54.1.6.37.15.62.34,1.24.55,1.84.09.26-.04.55-.3.64-.06.02-.11.03-.17.03ZM362.84,26.58s-.08,0-.12-.01c-.27-.06-.43-.33-.37-.6.15-.62.27-1.25.36-1.89.04-.27.28-.47.56-.43.27.04.46.29.43.56-.09.67-.22,1.34-.37,1.99-.06.23-.26.38-.49.38ZM322.17,24.71c-.25,0-.46-.18-.49-.43-.09-.65-.16-1.33-.19-2.01-.01-.28.2-.51.48-.52.28-.01.51.2.52.48.03.65.09,1.29.18,1.91.04.27-.15.53-.43.56-.02,0-.05,0-.07,0ZM363.38,22.68s-.02,0-.02,0c-.28-.01-.49-.25-.48-.52.01-.31.02-.63.02-.95,0-.33,0-.65-.02-.98-.01-.28.2-.51.48-.52.27,0,.51.2.52.48.02.34.02.68.02,1.02,0,.33,0,.66-.02.99-.01.27-.23.48-.5.48ZM321.99,20.77s-.01,0-.02,0c-.28-.01-.49-.24-.48-.52.03-.68.09-1.35.18-2.01.04-.27.29-.46.56-.43.27.04.47.29.43.56-.09.63-.14,1.27-.17,1.92-.01.27-.23.48-.5.48ZM363.2,18.75c-.25,0-.46-.18-.49-.43-.09-.63-.21-1.27-.36-1.89-.06-.27.1-.54.37-.6.27-.06.54.1.6.37.16.65.28,1.32.38,1.98.04.27-.15.53-.43.56-.02,0-.05,0-.07,0ZM322.53,16.87s-.08,0-.12-.01c-.27-.06-.43-.33-.37-.6.16-.66.35-1.31.57-1.94.09-.26.38-.4.64-.31.26.09.4.38.31.64-.21.6-.39,1.22-.54,1.84-.05.23-.26.38-.49.38ZM362.27,14.93c-.21,0-.4-.13-.47-.33-.15-.42-.31-.83-.49-1.25-.08-.18-.16-.36-.24-.53-.12-.25,0-.55.24-.66.25-.12.55,0,.66.24.09.18.17.37.25.56.19.43.36.87.51,1.31.09.26-.04.55-.31.64-.05.02-.11.03-.17.03ZM323.82,13.16c-.07,0-.14-.01-.21-.05-.25-.12-.36-.41-.24-.66.28-.61.59-1.21.93-1.79.14-.24.44-.32.68-.18.24.14.32.44.18.68-.32.55-.62,1.12-.89,1.71-.08.18-.27.29-.45.29ZM360.61,11.36c-.17,0-.34-.09-.43-.25-.32-.56-.67-1.1-1.04-1.62-.16-.22-.11-.54.12-.7.23-.16.54-.11.7.12.39.54.76,1.11,1.09,1.7.14.24.06.54-.18.68-.08.05-.17.07-.25.07ZM325.79,9.75c-.1,0-.2-.03-.29-.09-.23-.16-.28-.47-.12-.7.39-.55.81-1.08,1.24-1.59.18-.21.5-.23.71-.05.21.18.23.5.05.71-.42.48-.82.99-1.19,1.51-.1.14-.25.21-.41.21ZM358.33,8.15c-.14,0-.28-.06-.38-.17-.31-.36-.64-.71-.98-1.05-.11-.11-.23-.23-.35-.34-.2-.19-.21-.51-.02-.71.19-.2.51-.21.71-.02.12.12.25.24.37.36.36.36.7.72,1.03,1.1.18.21.16.52-.05.71-.09.08-.21.12-.33.12ZM328.36,6.77c-.13,0-.26-.05-.36-.15-.19-.2-.18-.52.01-.71.48-.46,1-.91,1.52-1.33.22-.17.53-.14.7.08.17.22.13.53-.08.7-.5.4-.99.82-1.45,1.26-.1.09-.22.14-.35.14ZM355.48,5.44c-.11,0-.22-.04-.31-.11-.5-.39-1.03-.77-1.57-1.12-.23-.15-.3-.46-.15-.69s.46-.3.69-.15c.57.36,1.12.76,1.64,1.17.22.17.25.49.08.7-.1.13-.25.19-.39.19ZM331.45,4.32c-.16,0-.32-.08-.42-.23-.15-.23-.08-.54.15-.69.56-.36,1.15-.7,1.74-1.02.24-.13.55-.03.67.21.13.24.03.55-.21.67-.57.3-1.13.62-1.66.97-.08.05-.18.08-.27.08ZM352.17,3.3c-.08,0-.16-.02-.23-.06-.45-.23-.91-.45-1.39-.66l-.36-.15c-.26-.1-.38-.4-.27-.65.11-.26.4-.38.65-.27l.38.16c.49.21.98.44,1.45.69.24.13.34.43.21.67-.09.17-.26.27-.44.27ZM334.94,2.5c-.2,0-.38-.12-.46-.31-.1-.25.02-.55.27-.65.62-.26,1.26-.48,1.9-.68.27-.08.54.07.62.34s-.07.54-.34.62c-.61.18-1.22.4-1.81.64-.06.03-.13.04-.19.04ZM348.52,1.82s-.09,0-.14-.02c-.61-.18-1.24-.33-1.87-.45-.27-.05-.45-.31-.4-.58.05-.27.31-.45.58-.4.66.13,1.33.28,1.96.47.27.08.42.36.34.62-.06.22-.26.36-.48.36ZM338.71,1.37c-.24,0-.44-.17-.49-.41-.05-.27.13-.53.4-.59.65-.12,1.33-.22,2-.28.27-.03.52.18.54.45.03.27-.18.52-.45.54-.64.06-1.28.15-1.9.27-.03,0-.06,0-.09,0ZM344.65,1.09s-.03,0-.05,0c-.63-.06-1.28-.09-1.92-.09-.28,0-.53-.22-.53-.5s.19-.5.47-.5h.06c.68,0,1.36.03,2.01.09.28.02.48.27.45.54-.02.26-.24.46-.5.46Z"/>
    <path d="M343.02,37.29c-.28,0-.52-.22-.52-.5s.2-.5.48-.5h.04c.64,0,1.27-.06,1.88-.18.27-.06.53.12.59.39.05.27-.12.53-.39.59-.67.14-1.37.2-2.08.2ZM341,37.09s-.07,0-.1-.01c-.68-.14-1.35-.35-1.99-.63-.25-.11-.37-.4-.26-.66.11-.25.4-.37.66-.26.58.25,1.18.44,1.8.57.27.06.44.32.39.59-.05.24-.26.4-.49.4ZM346.89,36.5c-.19,0-.38-.11-.46-.3-.11-.25,0-.55.26-.66.28-.12.56-.26.83-.41.28-.16.56-.32.83-.5.23-.15.54-.09.69.14.15.23.09.54-.14.69-.29.2-.59.38-.9.55-.3.17-.61.32-.92.45-.06.03-.13.04-.2.04ZM337.36,35.53c-.1,0-.19-.03-.28-.08-.57-.38-1.11-.81-1.62-1.29-.2-.19-.21-.51-.02-.71.19-.2.51-.21.71-.02.47.44.97.84,1.49,1.19.23.15.29.46.14.69-.1.14-.25.22-.42.22ZM350.19,34.31c-.13,0-.27-.05-.37-.16-.19-.2-.18-.52.02-.71.46-.42.89-.9,1.3-1.41.17-.21.49-.25.7-.08.22.17.25.49.08.7-.44.55-.91,1.06-1.4,1.52-.1.09-.22.13-.34.13ZM334.07,32.63l.33-.39-.39.31c-.39-.5-.76-1.04-1.09-1.6-.14-.24-.06-.54.17-.69.24-.14.54-.06.69.17.31.53.66,1.03,1.02,1.5l-.33.39-.39.31ZM352.67,31.22c-.09,0-.18-.02-.26-.07-.24-.14-.31-.45-.17-.69.32-.54.62-1.11.88-1.71.11-.25.41-.37.66-.25.25.11.37.41.25.66-.28.64-.6,1.25-.94,1.82-.09.16-.26.24-.43.24ZM332.43,29.41c-.19,0-.38-.11-.46-.3-.24-.54-.46-1.11-.65-1.69l-.07-.22c-.08-.26.06-.54.33-.63s.54.06.63.33l.07.2c.18.55.39,1.09.61,1.61.11.25,0,.55-.26.66-.07.03-.13.04-.2.04ZM354.29,27.59c-.05,0-.1,0-.15-.02-.26-.08-.41-.37-.32-.63.19-.61.36-1.24.49-1.87.05-.27.32-.45.59-.39.27.05.45.32.39.59-.13.67-.31,1.33-.51,1.98-.07.21-.26.35-.48.35ZM331.24,25.62c-.23,0-.44-.16-.49-.4-.13-.66-.23-1.34-.29-2.02-.03-.27.18-.52.45-.54.27-.02.52.18.54.45.06.65.15,1.29.28,1.92.05.27-.12.53-.39.59-.03,0-.07,0-.1,0ZM355.08,23.69s-.03,0-.05,0c-.27-.03-.48-.27-.45-.55.06-.63.09-1.28.09-1.93,0-.28.22-.5.5-.5h0c.28,0,.5.22.5.5,0,.7-.03,1.38-.1,2.04-.02.26-.24.45-.5.45ZM330.86,21.66h0c-.28,0-.5-.23-.5-.5,0-.69.04-1.37.1-2.03.03-.27.26-.48.54-.45.27.03.48.27.45.54-.06.63-.09,1.28-.09,1.94,0,.28-.22.5-.5.5ZM355.08,19.72c-.26,0-.47-.19-.5-.45-.06-.65-.15-1.3-.28-1.92-.05-.27.12-.53.39-.59.27-.06.53.12.59.39.13.65.23,1.33.29,2.02.03.27-.18.52-.45.54-.02,0-.03,0-.05,0ZM331.25,17.71s-.07,0-.1,0c-.27-.05-.45-.32-.39-.59.13-.67.31-1.34.51-1.98.08-.26.36-.41.63-.32.26.08.41.37.32.63-.19.61-.36,1.24-.48,1.87-.05.24-.26.4-.49.4ZM354.3,15.82c-.21,0-.41-.14-.48-.35l-.07-.21c-.18-.55-.39-1.09-.62-1.6-.11-.25,0-.55.26-.66.25-.11.55,0,.66.26.24.54.46,1.11.65,1.7l.07.22c.08.26-.06.54-.33.63-.05.02-.1.02-.15.02ZM332.45,13.92c-.07,0-.14-.01-.2-.04-.25-.11-.37-.41-.25-.66.28-.64.6-1.25.95-1.82.14-.24.45-.31.69-.17.24.14.31.45.17.69-.32.54-.62,1.11-.89,1.71-.08.19-.27.3-.46.3ZM352.68,12.19c-.17,0-.34-.09-.43-.24-.31-.52-.65-1.01-1.01-1.47l-.08-.1c-.17-.21-.14-.53.07-.7.22-.17.53-.14.7.07l.09.11c.39.49.75,1.02,1.09,1.58.14.24.07.54-.17.69-.08.05-.17.07-.26.07ZM334.51,10.53c-.11,0-.22-.04-.31-.11-.21-.17-.25-.49-.07-.7.44-.54.91-1.05,1.41-1.51.2-.19.52-.18.71.03.19.2.18.52-.03.71-.46.43-.9.9-1.31,1.4-.1.12-.24.19-.39.19ZM350.19,9.1c-.12,0-.24-.04-.34-.13-.47-.44-.97-.84-1.5-1.19-.23-.15-.29-.47-.13-.69.15-.23.46-.29.69-.13.57.38,1.11.82,1.62,1.29.2.19.21.5.03.71-.1.11-.23.16-.37.16ZM337.43,7.84c-.16,0-.32-.08-.42-.22-.15-.23-.09-.54.14-.69.28-.19.57-.37.87-.54.31-.17.62-.33.94-.47.26-.11.55,0,.66.26.11.25,0,.55-.26.66-.29.13-.57.27-.85.43-.27.15-.54.32-.81.5-.09.06-.18.08-.28.08ZM346.9,6.89c-.07,0-.14-.01-.2-.04-.58-.26-1.18-.45-1.79-.58-.27-.06-.44-.32-.39-.59.06-.27.32-.45.59-.39.68.14,1.35.36,1.99.64.25.11.37.41.26.66-.08.19-.27.3-.46.3ZM341.06,6.28c-.23,0-.44-.16-.49-.4-.06-.27.12-.53.39-.59.67-.14,1.36-.2,2.06-.2.28,0,.51.22.51.5s-.21.5-.49.5h-.02c-.63,0-1.26.06-1.86.18-.03,0-.07.01-.1.01Z"/>
  </g>
  <g>
    <path d="M399.48,38.52c-.16,0-.32-.08-.42-.23-.15-.23-.09-.54.14-.69.11-.07.21-.14.32-.21l.06-.11v-.43s0-.11-.17-.44c-.06-.13-.18-.24-.35-.33-.22.13-.45.25-.68.37-.25.13-.55.03-.67-.22-.13-.25-.03-.55.22-.67.29-.15.57-.3.85-.47l.2-.12.22.08c.53.19.9.5,1.1.91.07.14.13.27.17.39h.1l.05.89v.5l-.17.02-.16.32-.11.07c-.15.1-.29.2-.44.3-.08.06-.18.08-.27.08Z"/>
    <path d="M386.21,42.42h0c-.23,0-.5-.01-.81-.02-.49-.02-.88-.03-1.17-.03s-.51-.22-.51-.5.22-.5.49-.5c.31,0,.71.01,1.22.03.3.01.57.02.8.02.28,0,.5.23.49.51,0,.27-.23.49-.5.49ZM388.22,42.37c-.26,0-.48-.2-.5-.47-.02-.28.19-.51.47-.53.66-.04,1.31-.12,1.95-.22.28-.04.53.14.57.42.04.27-.14.53-.42.57-.66.1-1.35.18-2.04.23-.01,0-.02,0-.03,0ZM382.22,42.1s-.06,0-.09,0c-.67-.13-1.35-.3-2-.5-.26-.08-.41-.36-.33-.62.08-.26.36-.41.62-.33.62.19,1.25.35,1.89.47.27.05.45.31.4.59-.05.24-.26.41-.49.41ZM392.17,41.75c-.22,0-.43-.15-.48-.38-.07-.27.09-.54.36-.61.51-.13,1.01-.28,1.51-.44l.36-.12c.26-.09.55.04.64.31.09.26-.04.55-.31.64l-.38.13c-.52.18-1.05.33-1.58.47-.04.01-.08.02-.12.02ZM378.4,40.92c-.07,0-.13-.01-.2-.04-.45-.19-.9-.41-1.34-.64-.17-.09-.34-.18-.51-.28-.24-.14-.33-.44-.19-.68.13-.24.44-.33.68-.19.16.09.32.18.48.26.42.22.84.42,1.27.6.25.11.37.4.26.66-.08.19-.27.3-.46.3ZM395.96,40.43c-.19,0-.38-.11-.46-.3-.11-.25,0-.55.26-.66.6-.27,1.19-.56,1.76-.87.24-.13.55-.04.68.2.13.24.04.55-.2.68-.59.32-1.21.62-1.84.9-.07.03-.13.04-.2.04ZM374.9,38.97c-.1,0-.2-.03-.28-.09-.56-.39-1.11-.81-1.63-1.25-.21-.18-.23-.5-.06-.71.18-.21.5-.23.71-.06.49.42,1.01.82,1.55,1.19.23.16.28.47.13.7-.1.14-.25.21-.41.21ZM391.13,38.23c-.28,0-.56,0-.84-.02-.28-.01-.49-.25-.47-.52.01-.28.26-.49.52-.47.64.03,1.3.03,1.94-.02.28-.02.52.18.54.46s-.18.52-.46.54c-.41.03-.81.05-1.23.05ZM388.32,37.98s-.06,0-.09,0c-.68-.13-1.36-.3-2.01-.52-.26-.09-.4-.37-.32-.63.09-.26.37-.4.63-.32.61.2,1.24.36,1.87.48.27.05.45.31.4.58-.04.24-.25.41-.49.41ZM394.3,37.9c-.23,0-.44-.16-.49-.39-.06-.27.11-.54.38-.59.32-.07.63-.15.94-.24.31-.09.62-.19.93-.3.26-.09.55.04.64.3.09.26-.04.55-.3.64-.32.12-.65.22-.98.32-.33.1-.67.18-1,.25-.04,0-.07.01-.11.01ZM384.53,36.72c-.07,0-.15-.02-.22-.05-.62-.3-1.23-.65-1.8-1.02-.23-.15-.3-.46-.15-.69.15-.23.46-.3.69-.15.54.35,1.11.67,1.69.96.25.12.35.42.23.67-.09.18-.26.28-.45.28ZM371.85,36.37c-.13,0-.26-.05-.36-.15-.19-.2-.38-.41-.57-.62-.27-.3-.53-.61-.78-.93-.17-.22-.13-.53.08-.7.22-.17.53-.13.7.08.24.3.49.6.74.89.18.2.36.4.54.59.19.2.19.52-.01.71-.1.09-.22.14-.35.14ZM381.18,34.53c-.11,0-.23-.04-.32-.12-.36-.31-.71-.63-1.05-.97-.15-.15-.3-.31-.44-.46-.19-.2-.17-.52.03-.71s.52-.17.71.03c.13.15.27.29.41.43.32.32.64.62.98.91.21.18.24.49.06.71-.1.12-.24.18-.38.18ZM369.37,33.23c-.16,0-.33-.08-.42-.23-.37-.57-.71-1.17-1.03-1.78-.13-.25-.03-.55.22-.67.24-.13.55-.03.67.21.3.58.63,1.15.98,1.69.15.23.08.54-.15.69-.08.05-.18.08-.27.08ZM378.49,31.58c-.16,0-.31-.07-.41-.21-.39-.56-.75-1.15-1.07-1.77-.13-.24-.03-.55.21-.68.24-.13.55-.03.68.21.3.58.64,1.13,1.01,1.66.16.23.1.54-.12.7-.09.06-.19.09-.29.09ZM367.53,29.68c-.2,0-.38-.12-.46-.31l-.13-.32c-.21-.53-.39-1.07-.56-1.62-.08-.26.07-.54.34-.62.27-.08.54.07.62.34.15.52.33,1.04.53,1.54l.12.31c.1.26-.02.55-.28.65-.06.02-.13.04-.19.04ZM376.62,28.04c-.2,0-.39-.12-.47-.32-.24-.64-.45-1.31-.61-1.98-.06-.27.1-.54.37-.6.27-.07.54.1.6.37.15.63.34,1.25.57,1.85.1.26-.03.55-.29.65-.06.02-.12.03-.18.03ZM366.38,25.84c-.23,0-.44-.17-.49-.4-.13-.67-.23-1.35-.29-2.03-.03-.27.17-.52.45-.55.28-.02.52.17.55.45.06.65.16,1.3.28,1.94.05.27-.12.53-.4.59-.03,0-.06,0-.1,0ZM375.7,24.14c-.25,0-.47-.19-.5-.45-.06-.6-.1-1.21-.1-1.82v-.24c0-.27.23-.49.5-.49h0c.28,0,.5.23.49.51v.23c0,.58.03,1.15.09,1.71.03.27-.17.52-.44.55-.02,0-.04,0-.05,0ZM365.99,21.85c-.27,0-.5-.22-.5-.49v-.14c0-.64.03-1.28.08-1.91.02-.28.26-.49.54-.46.28.02.48.26.46.54-.05.59-.07,1.21-.07,1.82v.13c0,.28-.22.5-.49.51h0ZM375.75,20.14s-.04,0-.07,0c-.27-.04-.47-.29-.43-.56.09-.69.23-1.37.41-2.03.07-.27.35-.42.61-.35.27.07.42.35.35.61-.17.62-.29,1.25-.38,1.9-.03.25-.25.43-.5.43ZM366.33,17.86s-.06,0-.09,0c-.27-.05-.45-.31-.4-.58.12-.67.28-1.35.46-2,.07-.27.35-.42.62-.34.27.08.42.35.34.62-.18.62-.32,1.26-.44,1.91-.04.24-.25.41-.49.41ZM376.79,16.28c-.06,0-.13-.01-.19-.04-.26-.1-.38-.4-.27-.65.26-.64.57-1.26.9-1.86.13-.24.44-.33.68-.19.24.14.33.44.19.68-.32.56-.6,1.15-.85,1.75-.08.19-.27.31-.46.31ZM367.42,14.01c-.06,0-.12-.01-.18-.03-.26-.1-.39-.39-.29-.65.25-.64.52-1.27.83-1.88.12-.25.42-.35.67-.23.25.12.35.42.23.67-.29.58-.55,1.18-.79,1.79-.08.2-.27.32-.47.32ZM378.76,12.8c-.1,0-.21-.03-.29-.1-.22-.16-.27-.48-.11-.7l.11-.15c.35-.51.75-1,1.17-1.46.19-.2.5-.22.71-.03s.22.5.03.71c-.39.42-.76.89-1.1,1.37l-.11.15c-.1.13-.25.2-.4.2ZM396.43,11.98c-.6,0-1.15-.31-1.64-.93-.17-.22-.13-.53.08-.7.22-.17.53-.13.7.08.37.47.72.63,1.12.5.26-.09.57.04.67.29.09.26,0,.52-.25.62-.01,0-.09.03-.1.04-.18.06-.38.09-.57.09ZM398.22,10.44c-.06,0-.12-.01-.18-.04-.26-.1-.38-.39-.28-.65.1-.25.15-.54.15-.87,0-.21-.02-.44-.06-.68l-.03-.14c-.05-.27.12-.53.39-.59.27-.06.53.12.59.39l.03.17c.05.3.08.59.08.85,0,.45-.07.86-.22,1.23-.08.2-.27.32-.46.32ZM369.2,10.42c-.09,0-.18-.02-.26-.08-.23-.15-.31-.45-.16-.69l.17-.26c.32-.49.65-.97,1.01-1.43.17-.22.48-.26.7-.09.22.17.26.48.09.7-.33.44-.66.89-.96,1.36l-.16.25c-.09.15-.26.24-.43.24ZM381.48,9.87c-.15,0-.29-.06-.39-.19-.17-.22-.13-.53.08-.7.54-.42,1.12-.82,1.72-1.16.24-.14.55-.05.68.19.14.24.05.54-.19.68-.56.32-1.1.68-1.6,1.08-.09.07-.2.11-.31.11ZM394,9.62c-.15,0-.31-.07-.41-.21-.28-.39-.59-.74-.9-1.04-.12-.11-.24-.22-.37-.32-.22-.17-.25-.49-.08-.7s.49-.25.7-.08c.15.12.3.25.44.38.36.35.71.74,1.02,1.18.16.22.11.54-.11.7-.09.06-.19.1-.29.1ZM384.95,7.9c-.2,0-.39-.12-.47-.33-.1-.26.04-.55.29-.64.65-.24,1.32-.43,2.01-.56.27-.05.53.13.59.4.05.27-.13.53-.4.59-.63.12-1.25.29-1.85.52-.06.02-.12.03-.17.03ZM371.64,7.25c-.12,0-.25-.04-.34-.14-.2-.19-.21-.51-.02-.71.46-.49.96-.97,1.48-1.43.21-.18.52-.16.71.05.18.21.16.52-.05.71-.49.43-.97.89-1.41,1.36-.1.1-.23.16-.36.16ZM390.87,7.25s-.08,0-.12-.01c-.22-.05-.45-.09-.7-.1-.15-.02-.23-.04-.29-.04-.48.07-.62.04-.87.04-.26.02-.51-.21-.52-.48,0-.28.21-.51.48-.52.22,0,.37.03.7-.03.15-.03.35-.02.62.03.24,0,.53.05.81.12.27.06.43.33.37.6-.06.23-.26.38-.49.38ZM397.72,6.55c-.19,0-.38-.11-.46-.3l-.07-.17c-.23-.53-.51-1.04-.83-1.52-.15-.23-.09-.54.14-.69.23-.15.54-.09.69.14.35.53.66,1.09.91,1.67l.07.17c.11.25,0,.55-.26.66-.06.03-.13.04-.2.04ZM374.65,4.6c-.16,0-.31-.07-.41-.21-.16-.22-.11-.54.11-.7.55-.4,1.13-.78,1.72-1.12.24-.14.54-.06.68.18.14.24.06.54-.18.68-.56.33-1.11.68-1.64,1.06-.09.06-.19.09-.29.09ZM395.5,3.25c-.12,0-.24-.04-.34-.13-.2-.18-.4-.35-.61-.48-.07-.06-.16-.13-.52-.3-.18-.09-.33-.16-.45-.22-.24-.13-.34-.43-.21-.68.13-.24.43-.34.68-.21.11.06.24.12.41.2.48.23.63.34.72.43.18.11.42.3.66.52.2.19.21.5.03.71-.1.11-.23.16-.37.16ZM378.11,2.59c-.2,0-.39-.12-.46-.31-.1-.26.02-.55.28-.65.64-.26,1.29-.48,1.94-.68.27-.08.54.07.62.34.08.27-.07.54-.34.62-.62.18-1.24.4-1.85.64-.06.02-.12.04-.19.04ZM391.9,1.6s-.07,0-.11-.01c-.55-.12-1.11-.23-1.68-.32l-.25-.04c-.27-.04-.46-.29-.42-.57.04-.27.29-.46.57-.42l.26.04c.59.09,1.17.2,1.75.33.27.06.44.33.38.6-.05.23-.26.39-.49.39ZM381.95,1.45c-.23,0-.44-.16-.49-.4-.05-.27.12-.53.39-.59.66-.13,1.34-.24,2.02-.31.27-.03.52.17.55.44s-.17.52-.44.55c-.65.07-1.3.17-1.94.3-.03,0-.07,0-.1,0ZM387.94,1.04s-.02,0-.03,0c-.65-.04-1.31-.05-1.96-.03-.29,0-.51-.21-.51-.49s.21-.51.49-.51c.68-.02,1.37,0,2.05.03.28.02.49.25.47.53-.02.27-.24.47-.5.47Z"/>
  </g>
  <g>
    <path d="M423.94,3.15c-.11,0-.23-.03-.39-.09-.26-.09-.39-.38-.3-.64.09-.26.38-.39.64-.3.04.01.07.02.09.03.24,0,.32-.07.32-.08l.15-.15h.1s.1-.09.19-.18c.15-.15.36-.26.62-.33.26-.07.54.1.6.37.06.27-.1.54-.37.6-.12.03-.15.06-.15.06-.24.24-.39.36-.52.43l-.1.05c-.23.15-.53.22-.89.22Z"/>
    <path d="M421.78,42.44c-.28,0-.5-.22-.5-.5,0-.28.22-.5.5-.5.16,0,.33,0,.49,0,.49-.01.97-.05,1.43-.1.28-.03.52.16.56.44.03.27-.16.52-.44.56-.49.06-1,.09-1.52.11-.17,0-.33.05-.52,0ZM419.8,42.36s-.03,0-.04,0c-.67-.05-1.34-.13-2.01-.23-.27-.04-.46-.3-.42-.57.04-.27.3-.46.57-.42.64.1,1.29.17,1.93.22.28.02.48.26.46.54-.02.26-.24.46-.5.46ZM403.99,42.2c-.34,0-.56-.02-.72-.06-.32-.06-.63-.18-.9-.36-.23-.15-.29-.46-.14-.69.15-.23.46-.29.69-.14.16.1.35.18.56.22.09.02.24.05.57.05.07-.02.21-.05.35-.09.27-.08.54.08.62.34.08.27-.08.54-.34.62-.18.05-.36.09-.55.12-.05,0-.1,0-.14,0ZM425.7,41.94c-.22,0-.42-.14-.48-.36-.08-.27.08-.54.34-.62.62-.18,1.21-.41,1.75-.68.25-.12.55-.03.67.22.13.25.03.55-.22.67-.6.31-1.25.56-1.93.75-.05.01-.09.02-.14.02ZM415.89,41.77s-.07,0-.11-.01c-.66-.15-1.31-.32-1.95-.52-.26-.08-.41-.36-.33-.62.08-.26.36-.41.62-.33.61.19,1.25.36,1.88.5.27.06.44.33.38.6-.05.23-.26.39-.49.39ZM406.34,41.27c-.18,0-.35-.1-.44-.26-.13-.24-.04-.55.21-.68l.2-.11c.59-.3,1.17-.53,1.75-.68.27-.07.54.09.61.36.07.27-.09.54-.36.61-.5.13-1.01.33-1.53.59l-.19.11c-.08.04-.16.06-.23.06ZM412.08,40.66s-.08,0-.13-.02c-.64-.17-1.26-.27-1.85-.3-.28-.02-.49-.25-.47-.53.02-.28.24-.51.53-.47.65.04,1.34.15,2.05.33.27.07.43.34.36.61-.06.23-.26.37-.48.37ZM401.88,40.16s-.08,0-.12-.02c-.27-.07-.43-.34-.36-.61.05-.19.12-.38.23-.56l.08-.11.17-.17c.22-.28.46-.62.67-.95.15-.23.46-.3.69-.15s.3.46.15.69c-.23.36-.49.72-.77,1.08l-.15.16c-.05.09-.08.17-.1.26-.06.23-.26.38-.48.38ZM429.19,40.14c-.14,0-.29-.06-.39-.18-.18-.21-.15-.53.07-.7.14-.12.28-.24.41-.37.32-.31.62-.63.89-.98.17-.22.49-.25.7-.08.22.17.25.49.08.7-.3.38-.63.74-.99,1.08-.15.14-.3.28-.46.41-.09.08-.21.11-.32.11ZM417.7,38.73c-.21,0-.41,0-.63-.02-.28-.02-.48-.26-.46-.54s.26-.48.54-.46c.19.01.37.01.57.02.44,0,.86-.04,1.27-.12.27-.05.53.12.59.39.05.27-.12.53-.39.59-.47.09-.96.14-1.46.14h-.02ZM415.16,38.36s-.09,0-.13-.02c-.7-.19-1.35-.45-1.94-.75-.25-.13-.34-.43-.21-.67.13-.25.43-.34.67-.21.53.27,1.11.5,1.75.68.27.07.42.35.35.62-.06.22-.26.37-.48.37ZM420.93,37.92c-.17,0-.34-.09-.44-.25-.14-.24-.05-.55.19-.68l.13-.07c.47-.28.91-.63,1.29-1.05.19-.2.5-.22.71-.03.2.19.22.5.03.71-.45.49-.96.91-1.53,1.24l-.14.08c-.08.04-.16.06-.25.06ZM431.63,37.05c-.07,0-.15-.02-.22-.05-.25-.12-.35-.42-.22-.67.27-.55.5-1.14.67-1.76.07-.27.35-.42.62-.35.27.07.42.35.35.62-.19.68-.44,1.33-.74,1.94-.09.18-.26.28-.45.28ZM403.89,36.77c-.06,0-.13-.01-.19-.04-.25-.11-.38-.4-.27-.65.13-.31.24-.63.34-.95.08-.27.14-.55.19-.83.04-.27.29-.46.57-.42.27.04.46.3.42.57-.05.33-.12.65-.21.96-.1.35-.23.7-.37,1.05-.08.19-.27.31-.46.31ZM411.67,36.55c-.11,0-.22-.04-.32-.11-.35-.29-.68-.6-.98-.93-.16-.18-.32-.36-.47-.54-.18-.21-.15-.53.07-.7.21-.18.53-.15.7.07.14.17.29.34.44.5.27.3.57.58.89.84.21.18.24.49.07.7-.1.12-.24.18-.39.18ZM423.6,35.07c-.08,0-.16-.02-.23-.06-.25-.13-.34-.43-.21-.67.22-.43.42-.9.59-1.41.04-.12.08-.24.12-.35.08-.26.36-.41.63-.33.26.08.41.36.33.63-.04.12-.08.25-.12.38-.18.55-.4,1.07-.65,1.54-.09.17-.26.27-.44.27ZM409.15,33.52c-.17,0-.34-.09-.43-.25l-.16-.27c-.28-.49-.54-.99-.8-1.5-.12-.25-.03-.55.22-.67.25-.13.55-.03.67.22.25.5.51.99.78,1.46l.15.25c.14.24.06.54-.18.69-.08.05-.17.07-.25.07ZM432.7,33.26s-.04,0-.06,0c-.27-.03-.47-.28-.44-.55l.02-.21c.04-.43.06-.86.06-1.27,0-.14,0-.28,0-.42,0-.28.21-.51.48-.52.27-.02.51.21.52.48,0,.15,0,.3,0,.45,0,.45-.02.9-.07,1.37l-.02.23c-.03.26-.25.44-.5.44ZM404.48,32.9c-.25,0-.47-.19-.5-.45-.05-.45-.13-.91-.25-1.39-.03-.13-.05-.25-.05-.38,0-.11.01-.22.03-.33.06-.27.32-.44.59-.39.27.06.44.32.39.59,0,.04-.01.09-.01.13,0,.05,0,.09.02.14.13.52.23,1.04.28,1.53.03.27-.17.52-.45.55-.02,0-.03,0-.05,0ZM424.61,31.28c-.26,0-.48-.2-.5-.47-.03-.46-.14-.85-.36-1.19-.07-.12-.15-.23-.24-.34-.17-.22-.13-.53.08-.7.22-.17.53-.13.7.08.11.15.22.29.31.44.29.48.46,1.04.5,1.65.02.28-.19.51-.47.53-.01,0-.02,0-.03,0ZM407.28,30.03c-.13,0-.27-.05-.37-.16l-.07-.07c-.31-.28-.68-.38-1.1-.3-.04,0-.09.02-.14.03-.26.08-.54-.08-.62-.34-.08-.27.08-.54.34-.62.07-.02.15-.04.22-.05.78-.14,1.42.05,1.98.56l.11.12c.19.2.18.52-.02.71-.1.09-.22.13-.34.13ZM432.55,29.32c-.23,0-.44-.16-.49-.4-.04-.18-.08-.36-.12-.54-.12-.44-.25-.87-.41-1.28-.1-.26.03-.55.28-.65.26-.1.55.03.65.28.17.44.33.91.45,1.39.05.19.1.39.14.59.06.27-.12.53-.39.59-.03,0-.07.01-.1.01ZM422.43,28.16c-.09,0-.19-.03-.27-.08-.41-.27-.88-.53-1.42-.78l-.26-.12c-.25-.11-.36-.41-.25-.66.11-.25.41-.36.66-.25l.27.12c.58.27,1.1.55,1.55.85.23.15.29.46.14.69-.1.15-.26.23-.42.23ZM418.87,26.45c-.06,0-.13-.01-.19-.04-.61-.24-1.22-.48-1.83-.7-.26-.09-.4-.38-.3-.64.09-.26.38-.4.64-.3.63.22,1.25.46,1.87.71.26.1.38.4.28.65-.08.19-.27.31-.46.31ZM431.1,25.65c-.17,0-.33-.08-.43-.24-.1-.17-.21-.33-.32-.49-.25-.35-.52-.69-.82-1.01-.19-.2-.17-.52.03-.71.2-.19.52-.17.71.03.32.35.63.73.9,1.11.12.18.24.35.36.54.15.23.07.54-.16.69-.08.05-.17.08-.26.08ZM415.15,25.08c-.06,0-.12,0-.17-.03-.62-.23-1.24-.47-1.86-.72-.26-.1-.38-.4-.28-.65.1-.26.4-.38.65-.28.61.25,1.22.48,1.83.71.26.1.39.38.29.64-.07.2-.27.33-.47.33ZM411.46,23.64c-.06,0-.12-.01-.18-.03-.09-.03-.18-.08-.27-.12l-.12-.09s-.1-.06-.16-.11c-.42-.21-.84-.48-1.24-.79-.22-.17-.26-.48-.1-.7.17-.22.48-.26.7-.1.38.28.76.53,1.15.72l.14.1s.1.06.15.1c.04.02.09.04.13.06.26.1.38.39.28.65-.08.2-.27.32-.47.32ZM428.43,22.75c-.1,0-.21-.03-.3-.1-.16-.12-.33-.24-.5-.36-.35-.24-.72-.46-1.1-.65-.25-.13-.34-.43-.22-.67.13-.25.43-.34.67-.22.42.22.82.46,1.2.71.19.12.37.25.54.39.22.17.26.48.1.7-.1.13-.25.2-.4.2ZM408.33,21.25c-.14,0-.27-.06-.37-.17-.45-.5-.87-1.05-1.26-1.63-.15-.23-.09-.54.14-.69.23-.15.54-.09.69.14.35.54.74,1.04,1.16,1.51.19.2.17.52-.04.71-.1.09-.22.13-.33.13ZM424.93,20.94c-.05,0-.1,0-.15-.02-.3-.1-.6-.18-.91-.26-.22-.06-.54-.14-.97-.25-.27-.07-.43-.34-.37-.6s.34-.43.6-.37c.45.11.77.19.99.25.32.08.64.17.96.28.26.09.41.37.32.63-.07.21-.26.35-.48.35ZM421.1,19.93s-.08,0-.13-.02l-1.92-.51c-.27-.07-.42-.35-.35-.61.07-.27.35-.42.61-.35l1.91.51c.27.07.43.34.36.61-.06.23-.26.38-.48.38ZM417.28,18.91s-.09,0-.13-.02l-.24-.07c-.59-.12-1.18-.32-1.72-.57-.25-.12-.36-.41-.24-.66.12-.25.41-.36.66-.24.47.22.99.39,1.53.5l.27.07c.27.07.42.35.35.61-.06.22-.26.37-.48.37ZM406.13,17.98c-.18,0-.36-.1-.44-.27-.17-.33-.33-.67-.49-1.01-.13-.28-.25-.57-.35-.85-.1-.26.03-.55.29-.65.26-.1.55.03.65.29.1.26.21.52.33.79.15.33.3.65.46.96.13.25.03.55-.21.67-.07.04-.15.06-.23.06ZM413.74,17.23c-.12,0-.23-.04-.33-.12-.24-.21-.48-.45-.7-.69-.26-.29-.49-.59-.69-.9-.15-.23-.08-.54.15-.69.23-.15.54-.08.69.15.17.26.37.53.59.78.19.22.4.42.61.61.21.18.23.5.05.71-.1.11-.24.17-.38.17ZM404.75,14.28c-.23,0-.44-.16-.49-.39-.13-.61-.21-1.31-.21-2.07,0-.28.22-.5.5-.5h0c.27,0,.5.22.5.5,0,.69.07,1.32.19,1.86.06.27-.11.54-.38.6-.04,0-.07.01-.11.01ZM411.67,13.92c-.23,0-.43-.15-.49-.39-.12-.49-.18-1.02-.18-1.55,0-.19,0-.39.02-.58.02-.27.26-.49.54-.46.27.02.48.27.46.54-.01.16-.02.33-.02.49,0,.46.05.9.15,1.32.06.27-.1.54-.37.6-.04,0-.08.01-.12.01ZM424.86,10.63c-.16,0-.32-.03-.52-.1-.15-.06-.31-.13-.48-.22-.24-.14-.33-.44-.19-.68.14-.24.44-.33.68-.19.11.06.22.12.33.15.12.04.17.04.17.04.16-.07.35-.23.53-.47.16-.22.48-.27.7-.11s.27.48.11.7c-.29.39-.63.67-1.03.83-.12.04-.21.05-.31.05ZM404.67,10.33s-.05,0-.08,0c-.27-.04-.46-.3-.42-.57.11-.69.29-1.36.53-2.01.1-.26.38-.39.64-.29.26.1.39.39.29.64-.22.58-.38,1.19-.48,1.81-.04.25-.25.42-.49.42ZM412.02,10.01c-.06,0-.12-.01-.18-.04-.25-.11-.38-.37-.27-.62.33-.71.71-1.28,1.16-1.79.18-.21.5-.23.71-.04.21.18.22.5.04.71-.39.43-.71.93-.96,1.46-.09.19-.29.32-.49.32ZM422.9,8.9c-.22,0-.42-.14-.48-.36-.18-.63-.45-1.15-.81-1.54-.19-.2-.17-.52.03-.71s.52-.17.71.03c.46.5.8,1.15,1.03,1.93.08.27-.08.54-.34.62-.05.01-.09.02-.14.02ZM426.68,8.19s-.06,0-.09,0c-.27-.05-.45-.31-.41-.58,0-.04.01-.08.01-.12v-.52c0-.57.13-1,.39-1.32l.07-.11c.15-.23.46-.3.69-.15.23.15.3.46.15.69l-.11.17c-.14.17-.19.4-.19.72v.52c0,.09,0,.19-.03.29-.04.24-.25.41-.49.41ZM414.61,7.12c-.17,0-.33-.08-.42-.23-.15-.23-.08-.54.16-.69.4-.25.85-.48,1.31-.67.2-.08.4-.15.6-.21.27-.08.54.07.62.33.08.26-.07.54-.33.63-.18.05-.35.12-.52.19-.41.17-.8.36-1.16.59-.08.05-.17.08-.26.08ZM406.05,6.65c-.09,0-.18-.02-.26-.07-.24-.14-.31-.45-.17-.69.36-.59.77-1.14,1.24-1.66.19-.21.5-.22.71-.04s.22.5.04.71c-.42.47-.8.98-1.13,1.51-.09.15-.26.24-.43.24ZM420.3,6.19h-.16l-.13-.08c-.22-.02-.38-.04-.51-.08h-.09c-.18,0-.34-.01-.47-.04-.08-.01-.19-.02-.3-.02h-.26c-.27.02-.51-.2-.52-.48-.01-.28.21-.51.48-.52.27-.01.56,0,.77.03.09.02.19.02.31.02l.33.03c.06.02.12.03.2.03.21,0,.42.06.6.17.16.09.26.25.26.44,0,.28-.22.5-.49.5ZM427.69,4.45s-.04,0-.05,0c-.27-.03-.47-.28-.44-.55.02-.19.04-.39.05-.59,0-.06,0-.12,0-.17,0-.31-.07-.55-.2-.76-.2-.19-.2-.49,0-.69.19-.2.52-.19.72,0,.03.02.1.11.12.14.25.37.37.81.37,1.31,0,.08,0,.17,0,.25-.02.21-.04.42-.06.62-.03.26-.24.45-.5.45ZM408.67,3.71c-.15,0-.29-.07-.39-.19-.17-.22-.13-.53.08-.7.53-.42,1.11-.8,1.72-1.14.24-.13.55-.04.68.2.13.24.05.55-.2.68-.56.31-1.09.66-1.58,1.05-.09.07-.2.11-.31.11ZM421.75,2.21c-.07,0-.13-.01-.2-.04l-.3-.13c-.46-.19-.97-.37-1.51-.53-.26-.08-.41-.36-.33-.62.08-.26.36-.41.62-.33.57.17,1.11.37,1.6.57l.31.13c.25.11.37.4.26.66-.08.19-.27.3-.46.3ZM412.12,1.79c-.2,0-.39-.12-.47-.33-.1-.26.04-.55.3-.64.64-.24,1.31-.43,1.98-.56.27-.06.53.12.59.39.05.27-.12.53-.39.59-.62.12-1.24.3-1.83.52-.06.02-.12.03-.17.03ZM417.97,1.08s-.04,0-.07,0c-.62-.08-1.26-.1-1.89-.07-.26.02-.51-.2-.52-.48-.01-.28.2-.51.48-.52.69-.03,1.39-.02,2.07.07.27.04.47.29.43.56-.03.25-.25.44-.5.44Z"/>
  </g>
</svg>